<mxfile host="app.diagrams.net" agent="Mozilla/5.0 (Windows NT 10.0; Win64; x64) AppleWebKit/537.36 (KHTML, like Gecko) Chrome/136.0.0.0 Safari/537.36 Edg/136.0.0.0" version="27.0.6">
  <diagram name="Página-1" id="y4jfX4Cmxaxlos9lM9Ml">
    <mxGraphModel dx="1861" dy="587" grid="1" gridSize="10" guides="1" tooltips="1" connect="1" arrows="1" fold="1" page="1" pageScale="1" pageWidth="827" pageHeight="1169" math="0" shadow="0">
      <root>
        <mxCell id="0" />
        <mxCell id="1" parent="0" />
        <mxCell id="JGxX1QbOPggpfTRsIjnp-18" style="edgeStyle=orthogonalEdgeStyle;rounded=0;orthogonalLoop=1;jettySize=auto;html=1;exitX=1;exitY=0.5;exitDx=0;exitDy=0;entryX=0;entryY=0.5;entryDx=0;entryDy=0;" edge="1" parent="1" source="JGxX1QbOPggpfTRsIjnp-14" target="JGxX1QbOPggpfTRsIjnp-17">
          <mxGeometry relative="1" as="geometry" />
        </mxCell>
        <mxCell id="JGxX1QbOPggpfTRsIjnp-14" value=":usuárioController" style="rounded=0;whiteSpace=wrap;html=1;" vertex="1" parent="1">
          <mxGeometry x="330" y="130" width="120" height="60" as="geometry" />
        </mxCell>
        <mxCell id="JGxX1QbOPggpfTRsIjnp-15" value="1 )Banir usuário" style="text;html=1;align=center;verticalAlign=middle;resizable=0;points=[];autosize=1;strokeColor=none;fillColor=none;" vertex="1" parent="1">
          <mxGeometry x="5" y="38" width="110" height="30" as="geometry" />
        </mxCell>
        <mxCell id="JGxX1QbOPggpfTRsIjnp-16" value="SolicitaBanirUsuário(idUsuário, motivo, prazo)" style="verticalAlign=bottom;edgeStyle=elbowEdgeStyle;elbow=vertical;curved=0;rounded=0;endArrow=block;" edge="1" parent="1">
          <mxGeometry x="0.056" y="-1" relative="1" as="geometry">
            <Array as="points">
              <mxPoint x="196.5" y="160" />
            </Array>
            <mxPoint x="40" y="160" as="sourcePoint" />
            <mxPoint x="325.5" y="160" as="targetPoint" />
            <mxPoint as="offset" />
          </mxGeometry>
        </mxCell>
        <mxCell id="JGxX1QbOPggpfTRsIjnp-17" value=":usuárioService" style="rounded=0;whiteSpace=wrap;html=1;" vertex="1" parent="1">
          <mxGeometry x="690" y="130" width="120" height="60" as="geometry" />
        </mxCell>
        <mxCell id="JGxX1QbOPggpfTRsIjnp-19" value="1setBanimento(idUsuario, motivo, prazo)" style="text;html=1;align=center;verticalAlign=middle;resizable=0;points=[];autosize=1;strokeColor=none;fillColor=none;" vertex="1" parent="1">
          <mxGeometry x="450" y="140" width="240" height="30" as="geometry" />
        </mxCell>
        <mxCell id="JGxX1QbOPggpfTRsIjnp-20" style="edgeStyle=orthogonalEdgeStyle;rounded=0;orthogonalLoop=1;jettySize=auto;html=1;exitX=1;exitY=0.5;exitDx=0;exitDy=0;entryX=0;entryY=0.5;entryDx=0;entryDy=0;" edge="1" parent="1" source="JGxX1QbOPggpfTRsIjnp-21" target="JGxX1QbOPggpfTRsIjnp-23">
          <mxGeometry relative="1" as="geometry" />
        </mxCell>
        <mxCell id="JGxX1QbOPggpfTRsIjnp-21" value=":usuárioController" style="rounded=0;whiteSpace=wrap;html=1;" vertex="1" parent="1">
          <mxGeometry x="330" y="310" width="120" height="60" as="geometry" />
        </mxCell>
        <mxCell id="JGxX1QbOPggpfTRsIjnp-22" value="SolicitaBanirUsuário(idUsuário, motivo, prazo)" style="verticalAlign=bottom;edgeStyle=elbowEdgeStyle;elbow=vertical;curved=0;rounded=0;endArrow=block;" edge="1" parent="1">
          <mxGeometry x="0.056" y="-1" relative="1" as="geometry">
            <Array as="points">
              <mxPoint x="196.5" y="340" />
            </Array>
            <mxPoint x="40" y="340" as="sourcePoint" />
            <mxPoint x="325.5" y="340" as="targetPoint" />
            <mxPoint as="offset" />
          </mxGeometry>
        </mxCell>
        <mxCell id="JGxX1QbOPggpfTRsIjnp-23" value=":usuárioService" style="rounded=0;whiteSpace=wrap;html=1;" vertex="1" parent="1">
          <mxGeometry x="690" y="310" width="120" height="60" as="geometry" />
        </mxCell>
        <mxCell id="JGxX1QbOPggpfTRsIjnp-24" value="1setBanimento(idUsuario, motivo, prazo)" style="text;html=1;align=center;verticalAlign=middle;resizable=0;points=[];autosize=1;strokeColor=none;fillColor=none;" vertex="1" parent="1">
          <mxGeometry x="450" y="320" width="240" height="30" as="geometry" />
        </mxCell>
        <mxCell id="JGxX1QbOPggpfTRsIjnp-25" value="2) Desbanir usuário" style="text;html=1;align=center;verticalAlign=middle;resizable=0;points=[];autosize=1;strokeColor=none;fillColor=none;" vertex="1" parent="1">
          <mxGeometry x="-5" y="230" width="130" height="30" as="geometry" />
        </mxCell>
        <mxCell id="JGxX1QbOPggpfTRsIjnp-27" value="2 isBanned = true" style="verticalAlign=bottom;edgeStyle=elbowEdgeStyle;elbow=vertical;curved=0;rounded=0;endArrow=block;exitX=0.25;exitY=0;exitDx=0;exitDy=0;entryX=0.75;entryY=0;entryDx=0;entryDy=0;" edge="1" parent="1">
          <mxGeometry x="0.056" y="-1" relative="1" as="geometry">
            <Array as="points">
              <mxPoint x="770" y="50" />
            </Array>
            <mxPoint x="730" y="130" as="sourcePoint" />
            <mxPoint x="790" y="130" as="targetPoint" />
            <mxPoint as="offset" />
          </mxGeometry>
        </mxCell>
        <mxCell id="JGxX1QbOPggpfTRsIjnp-28" value="2 isBanned = false" style="verticalAlign=bottom;edgeStyle=elbowEdgeStyle;elbow=vertical;curved=0;rounded=0;endArrow=block;exitX=0.25;exitY=0;exitDx=0;exitDy=0;entryX=0.75;entryY=0;entryDx=0;entryDy=0;" edge="1" parent="1">
          <mxGeometry x="0.056" y="-1" relative="1" as="geometry">
            <Array as="points">
              <mxPoint x="770" y="230" />
            </Array>
            <mxPoint x="730" y="310" as="sourcePoint" />
            <mxPoint x="790" y="310" as="targetPoint" />
            <mxPoint as="offset" />
          </mxGeometry>
        </mxCell>
      </root>
    </mxGraphModel>
  </diagram>
</mxfile>
